# xmcd
#
# Track frame offsets:
# 150
# 19675
# 34615
# 48910
# 67680
# 82457
# 95722
# 110717
# 127657
# 147365
# 167597
# 179665
#
# Disc length: 2507 seconds
#
# Revision: 1
# Processed by: cddbd v1.4PL0 Copyright (c) Steve Scherf et al.
# Submitted via: CedeCatalogueitor 2.5 http://usuarios.lycos.es/kakasboy
#
DISCID=a009c90c
DTITLE=GUITARRAS MESTIZAS CD 2 - GUITARRAS MESTIZAS CD 2
DYEAR=1999
DGENRE=
TTITLE0=I SHOT THE SHERIFF
TTITLE1=KISS
TTITLE2=STAY
TTITLE3=ALBATROSS
TTITLE4=MOLIENDO CAFE
TTITLE5=MMM BOP
TTITLE6=LITTLE WING
TTITLE7=GEORGY PORGY
TTITLE8=SUPERSTITION
TTITLE9=DON`T LET ME BE MISUNDERSTOOD
TTITLE10=ROXANE
TTITLE11=GOOD DAY SUNSHINE
EXTD=
EXTT0=
EXTT1=
EXTT2=
EXTT3=
EXTT4=
EXTT5=
EXTT6=
EXTT7=
EXTT8=
EXTT9=
EXTT10=
EXTT11=
PLAYORDER=
